<svg width="227" height="54" viewBox="0 0 227 54" fill="none" xmlns="http://www.w3.org/2000/svg">
<path d="M5.45348 17.216C8.15348 17.216 9.95347 15.758 9.95347 13.76C9.95347 11.834 8.27948 10.898 7.18147 10.808C8.29747 10.61 9.77347 9.746 9.77347 8.018C9.77347 5.984 7.82948 4.814 5.47147 4.814C3.56347 4.814 2.03348 5.624 1.13348 6.668L1.96148 7.604C2.86148 6.65 3.99548 6.146 5.36348 6.146C6.94748 6.146 8.24348 6.866 8.24348 8.198C8.24348 9.584 6.92947 10.178 5.32748 10.178H2.87947V11.51H5.32748C7.16348 11.51 8.44148 12.14 8.44148 13.634C8.44148 15.02 7.30747 15.884 5.41747 15.884C3.94147 15.884 2.53748 15.218 1.81748 14.282L0.935475 15.236C1.69148 16.316 3.34748 17.216 5.45348 17.216ZM23.3272 17L18.4852 4.994H16.6312L11.8072 17H13.5172L14.5792 14.336H20.5552L21.6172 17H23.3272ZM20.1052 13.004H15.0112L17.5672 6.542L20.1052 13.004ZM34.7249 17L29.2889 10.7L34.2929 4.994H32.4209L27.1109 11.204V4.994H25.6169V17H27.1109V12.968L28.3169 11.6L32.8709 17H34.7249ZM47.4254 17L42.5834 4.994H40.7294L35.9054 17H37.6154L38.6774 14.336H44.6534L45.7154 17H47.4254ZM44.2034 13.004H39.1094L41.6654 6.542L44.2034 13.004ZM53.105 17.216C55.805 17.216 57.605 15.758 57.605 13.76C57.605 11.834 55.931 10.898 54.833 10.808C55.949 10.61 57.425 9.746 57.425 8.018C57.425 5.984 55.481 4.814 53.123 4.814C51.215 4.814 49.685 5.624 48.785 6.668L49.613 7.604C50.513 6.65 51.647 6.146 53.015 6.146C54.599 6.146 55.895 6.866 55.895 8.198C55.895 9.584 54.581 10.178 52.979 10.178H50.531V11.51H52.979C54.815 11.51 56.093 12.14 56.093 13.634C56.093 15.02 54.959 15.884 53.069 15.884C51.593 15.884 50.189 15.218 49.469 14.282L48.587 15.236C49.343 16.316 50.999 17.216 53.105 17.216ZM70.9787 17L66.1367 4.994H64.2827L59.4587 17H61.1687L62.2307 14.336H68.2067L69.2687 17H70.9787ZM67.7567 13.004H62.6627L65.2187 6.542L67.7567 13.004ZM76.5194 17V6.326H80.3354V4.994H71.2274V6.326H75.0254V17H76.5194ZM83.0411 4.994V17H87.8651C90.2771 17 91.6271 15.344 91.6271 13.382C91.6271 11.42 90.2411 9.764 87.8651 9.764H84.5351V4.994H83.0411ZM87.6851 11.096C89.1071 11.096 90.0791 12.032 90.0791 13.382C90.0791 14.732 89.1071 15.668 87.6851 15.668H84.5351V11.096H87.6851ZM103.322 17.216C106.022 17.216 107.822 15.758 107.822 13.76C107.822 11.834 106.148 10.898 105.05 10.808C106.166 10.61 107.642 9.746 107.642 8.018C107.642 5.984 105.698 4.814 103.34 4.814C101.432 4.814 99.9022 5.624 99.0022 6.668L99.8302 7.604C100.73 6.65 101.864 6.146 103.232 6.146C104.816 6.146 106.112 6.866 106.112 8.198C106.112 9.584 104.798 10.178 103.196 10.178H100.748V11.51H103.196C105.032 11.51 106.31 12.14 106.31 13.634C106.31 15.02 105.176 15.884 103.286 15.884C101.81 15.884 100.406 15.218 99.6862 14.282L98.8042 15.236C99.5602 16.316 101.216 17.216 103.322 17.216ZM116.39 17C118.586 17 119.864 15.686 119.864 13.76C119.864 12.32 118.802 11.006 117.524 10.808C118.622 10.574 119.63 9.566 119.63 8.054C119.63 6.254 118.352 4.994 116.264 4.994H110.918V17H116.39ZM116.012 10.196H112.412V6.326H116.012C117.362 6.326 118.082 7.19 118.082 8.27C118.082 9.368 117.362 10.196 116.012 10.196ZM116.084 15.668H112.412V11.528H116.084C117.56 11.528 118.316 12.5 118.316 13.598C118.316 14.876 117.488 15.668 116.084 15.668ZM128.43 17.216C131.976 17.216 134.388 14.552 134.388 11.006C134.388 7.46 131.976 4.796 128.43 4.796C124.866 4.796 122.472 7.46 122.472 11.006C122.472 14.552 124.866 17.216 128.43 17.216ZM128.43 15.884C125.73 15.884 124.02 13.796 124.02 11.006C124.02 8.198 125.73 6.128 128.43 6.128C131.112 6.128 132.84 8.198 132.84 11.006C132.84 13.796 131.112 15.884 128.43 15.884ZM147.45 17V4.994H145.956V10.16H138.936V4.994H137.442V17H138.936V11.492H145.956V17H147.45ZM156.448 17.216C159.994 17.216 162.406 14.552 162.406 11.006C162.406 7.46 159.994 4.796 156.448 4.796C152.884 4.796 150.49 7.46 150.49 11.006C150.49 14.552 152.884 17.216 156.448 17.216ZM156.448 15.884C153.748 15.884 152.038 13.796 152.038 11.006C152.038 8.198 153.748 6.128 156.448 6.128C159.13 6.128 160.858 8.198 160.858 11.006C160.858 13.796 159.13 15.884 156.448 15.884ZM174.568 17L169.132 10.7L174.136 4.994H172.264L166.954 11.204V4.994H165.46V17H166.954V12.968L168.16 11.6L172.714 17H174.568Z" transform="translate(25 16.5498)" fill="white"/>
<path d="M26.5 1H200.5C214.583 1 226 12.4167 226 26.5C226 40.5833 214.583 52 200.5 52H26.5C12.4167 52 1 40.5833 1 26.5C1 12.4167 12.4167 1 26.5 1Z" transform="translate(0 0.549805)" stroke="white" stroke-width="2"/>
</svg>
