<svg width="43" height="43" viewBox="0 0 43 43" fill="none" xmlns="http://www.w3.org/2000/svg">
<path d="M19.74 2.49153e-06C15.8354 2.99255e-06 12.0185 1.15799 8.77201 3.32749C5.52557 5.49699 2.99545 8.58055 1.50167 12.1881C0.00789011 15.7957 -0.382443 19.7653 0.38004 23.5948C1.14252 27.4242 3.02357 30.9415 5.78526 33.7018C8.54695 36.4621 12.0652 38.3414 15.8951 39.1019C19.7249 39.8625 23.6943 39.4701 27.3011 37.9745C30.9079 36.4789 33.9902 33.9472 36.1581 30.6997C38.3259 27.4521 39.482 23.6346 39.48 19.73C39.48 17.1382 38.9693 14.5718 37.9772 12.1773C36.985 9.78294 35.5308 7.60748 33.6977 5.77525C31.8645 3.94302 29.6883 2.48993 27.2934 1.49899C24.8985 0.508051 22.3318 -0.00131115 19.74 2.49153e-06V2.49153e-06Z" transform="translate(2 2)" stroke="white" stroke-width="2.83" stroke-miterlimit="10"/>
<path d="M8.39233e-07 -1.14441e-07V18.48L13.97 12.17" transform="translate(19.96 7.9502)" stroke="white" stroke-width="3" stroke-miterlimit="10"/>
</svg>
