<svg width="24" height="24" viewBox="0 0 24 24" fill="none" xmlns="http://www.w3.org/2000/svg">
<path d="M12.0005 10.3813L21.4633 0.851756L21.4633 0.851743C21.9291 0.382627 22.6857 0.382952 23.1516 0.851518L23.1519 0.851743C23.616 1.31915 23.616 2.0752 23.1519 2.54261L13.7574 12.0034L23.1453 21.4572C23.6095 21.9246 23.6095 22.6805 23.1455 23.1479M12.0005 10.3813L0.854776 23.1479C1.08763 23.3828 1.39454 23.5 1.6993 23.5C2.00463 23.5 2.31126 23.3826 2.54405 23.1476L12.0002 13.6254L21.4567 23.1481L21.8115 22.7958L21.4567 23.1481C21.6895 23.3825 21.9958 23.5 22.301 23.5C22.6058 23.5 22.9127 23.3828 23.1455 23.1479M12.0005 10.3813L2.53671 0.852077L2.5365 0.851864C2.07047 0.383173 1.31438 0.383173 0.848348 0.851864L0.848124 0.85209C0.383959 1.3195 0.383959 2.07555 0.848124 2.54296L0.848131 2.54296L10.2432 12.0034L0.855 21.4572C0.390982 21.9245 0.390835 22.6802 0.854553 23.1476L12.0005 10.3813ZM23.1455 23.1479C23.1454 23.148 23.1454 23.148 23.1453 23.1481L22.7906 22.7958L23.1458 23.1476C23.1457 23.1477 23.1456 23.1478 23.1455 23.1479Z" fill="white" stroke="white"/>
</svg>
