<svg width="1447" height="882" viewBox="0 0 1447 882" fill="none" xmlns="http://www.w3.org/2000/svg">
<path opacity="0.5" d="M597.8 1.52588e-06C928 1.52588e-06 1195.6 267.5 1195.6 597.5C1195.6 927.5 928 1195 597.8 1195C267.6 1195 1.52588e-06 927.5 1.52588e-06 597.5" transform="translate(68.2501 -134.35)" stroke="#F2EFEB" stroke-width="1.4173" stroke-miterlimit="10"/>
<path opacity="0.5" d="M665 -1.19209e-08C1032.3 -1.19209e-08 1330 297.6 1330 664.7C1330 1031.8 1032.3 1329.4 665 1329.4C297.7 1329.4 -1.1921e-08 1031.8 -1.1921e-08 664.7" transform="translate(1.05005 -201.55)" stroke="#F2EFEB" stroke-width="1.4173" stroke-miterlimit="10"/>
<path opacity="0.5" d="M1212.7 1.2207e-05C1212.7 669.4 669.7 1212.1 -6.10352e-06 1212.1" transform="translate(392.25 189.45)" stroke="#F2EFEB" stroke-width="1.4173" stroke-miterlimit="10"/>
<path opacity="0.5" d="M-6.10352e-06 127.35C169.8 -42.45 445 -42.45 614.8 127.35C784.6 297.15 784.6 572.35 614.8 742.15C445 911.95 169.8 911.95 -6.10352e-06 742.15" transform="translate(359.25 28.2999)" stroke="#F2EFEB" stroke-width="1.4173" stroke-miterlimit="10"/>
</svg>
