<svg width="23" height="23" viewBox="0 0 23 23" fill="none" xmlns="http://www.w3.org/2000/svg">
<path d="M19.9006 0H3.09932C1.38765 0 0 1.37924 0 3.08067V19.781C0 21.4824 1.38759 22.8617 3.09932 22.8617H11.3856L11.3998 14.6921H9.26448C8.98698 14.6921 8.76176 14.4691 8.76069 14.1933L8.75045 11.5599C8.74938 11.2826 8.97528 11.0572 9.2543 11.0572H11.3857V8.51268C11.3857 5.5598 13.2001 3.95194 15.8502 3.95194H18.0248C18.303 3.95194 18.5286 4.17614 18.5286 4.45275V6.67323C18.5286 6.94972 18.3032 7.17387 18.0251 7.17404L16.6905 7.17466C15.2493 7.17466 14.9702 7.85539 14.9702 8.85439V11.0572H18.1371C18.4388 11.0572 18.6729 11.3191 18.6374 11.617L18.3234 14.2504C18.2933 14.5024 18.0783 14.6923 17.8231 14.6923H14.9844L14.9702 22.8618H19.9007C21.6124 22.8618 23 21.4825 23 19.7812V3.08067C22.9999 1.37924 21.6124 0 19.9006 0Z" transform="translate(0 0.0690918)" fill="white" fill-opacity="0.9"/>
</svg>
