<svg width="45" height="45" viewBox="0 0 45 45" fill="none" xmlns="http://www.w3.org/2000/svg">
<path d="M38.936 0H6.06388C2.71496 0 0 2.71483 0 6.06384V38.9359C0 42.285 2.71485 44.9998 6.06388 44.9998H22.2763L22.3039 28.9193H18.1262C17.5832 28.9193 17.1426 28.4803 17.1405 27.9374L17.1204 22.754C17.1184 22.2081 17.5603 21.7644 18.1062 21.7644H22.2764V16.7559C22.2764 10.9436 25.8262 7.7788 31.0112 7.7788H35.2659C35.8102 7.7788 36.2516 8.22012 36.2516 8.76458V13.1353C36.2516 13.6795 35.8105 14.1207 35.2664 14.121L32.6554 14.1222C29.8356 14.1222 29.2896 15.4622 29.2896 17.4285V21.7645H35.4856C36.076 21.7645 36.534 22.2801 36.4644 22.8664L35.8501 28.0498C35.7913 28.5458 35.3707 28.9195 34.8712 28.9195H29.3172L29.2896 45H38.9362C42.2851 45 45 42.2852 45 38.9363V6.06384C44.9999 2.71483 42.285 0 38.936 0Z" fill="#A57258"/>
</svg>
