<svg width="52" height="35" viewBox="0 0 52 35" fill="none" xmlns="http://www.w3.org/2000/svg">
<path d="M48.8951 3.27715C47.5843 0.786517 46.0112 0.393259 42.9963 0.262172C39.9813 0.131086 32.2472 -2.50027e-07 25.5618 -2.50027e-07C18.8764 -2.50027e-07 11.1423 2.44167e-07 8.12734 0.131086C5.11236 0.262173 3.53933 0.786517 2.22846 3.27715C0.917603 5.76779 0 9.96255 0 17.4345C0 24.9064 0.786517 29.1011 2.22846 31.5918C3.67041 34.0824 5.11236 34.4757 8.12734 34.7378C11.1423 35 18.8764 35 25.5618 35C32.2472 35 39.9813 34.8689 42.9963 34.7378C46.0112 34.6067 47.5843 34.0824 48.8951 31.5918C50.206 29.1011 51.1236 24.9064 51.1236 17.4345C51.1236 9.96255 50.3371 5.76779 48.8951 3.27715ZM19.1386 27.0037V7.86517L35.1311 17.4345L19.1386 27.0037Z" fill="#A57258"/>
</svg>
