<svg width="42" height="57" viewBox="0 0 42 57" fill="none" xmlns="http://www.w3.org/2000/svg">
<path d="M21 0C15.4305 0 10.089 2.19309 6.15076 6.09682C2.21249 10.0005 0 15.2951 0 20.8158C0 32.3517 21 57 21 57C21 57 42 32.3132 42 20.8158C42 15.2951 39.7875 10.0005 35.8492 6.09682C31.911 2.19309 26.5695 0 21 0V0ZM21.6078 30.4291C19.5049 30.4316 17.4486 29.8158 15.6989 28.6596C13.9492 27.5035 12.5848 25.8588 11.7783 23.9338C10.9719 22.0088 10.7595 19.89 11.1682 17.8453C11.5769 15.8007 12.5882 13.9221 14.0742 12.4474C15.5602 10.9726 17.4542 9.96784 19.5164 9.56027C21.5786 9.15269 23.7165 9.36059 25.6595 10.1577C27.6025 10.9547 29.2633 12.3052 30.4319 14.0381C31.6004 15.771 32.2241 17.8086 32.2241 19.893C32.2241 22.6851 31.106 25.363 29.1155 27.3386C27.1249 29.3141 24.4246 30.4257 21.6078 30.4291Z" fill="#A57258"/>
</svg>
