<svg width="33" height="45" viewBox="0 0 33 45" fill="none" xmlns="http://www.w3.org/2000/svg">
<path d="M16.24 0C11.9329 0 7.80218 1.711 4.75659 4.75659C1.711 7.80218 0 11.9329 0 16.24C0 25.24 16.24 44.47 16.24 44.47C16.24 44.47 32.48 25.21 32.48 16.24C32.48 11.9329 30.769 7.80218 27.7234 4.75659C24.6778 1.711 20.5471 0 16.24 0V0ZM16.71 23.74C15.0838 23.742 13.4936 23.2616 12.1405 22.3595C10.7874 21.4575 9.73227 20.1744 9.10858 18.6726C8.4849 17.1708 8.32069 15.5177 8.63673 13.9225C8.95277 12.3273 9.73486 10.8617 10.884 9.71113C12.0332 8.56054 13.4979 7.77667 15.0927 7.45868C16.6875 7.1407 18.3408 7.3029 19.8433 7.92476C21.3459 8.54662 22.6303 9.60019 23.534 10.9522C24.4377 12.3042 24.92 13.8938 24.92 15.52C24.92 17.6983 24.0553 19.7876 22.516 21.3289C20.9766 22.8701 18.8883 23.7374 16.71 23.74Z" fill="white"/>
</svg>
