<svg width="23" height="23" viewBox="0 0 23 23" fill="none" xmlns="http://www.w3.org/2000/svg">
<path d="M19.5182 22.2619C19.5182 22.2619 18.4282 23.1519 16.0382 22.2619C12.2452 20.8069 8.83321 18.5074 6.06102 15.5376C3.28882 12.5679 1.22917 9.006 0.0382192 5.12194C-0.301781 3.96194 1.67822 0.961942 3.92822 0.00194195C4.12822 -0.078058 8.50822 2.32194 9.66822 5.67194C9.06116 6.82864 8.03416 7.70893 6.79822 8.13194C7.40822 10.3819 9.38822 14.0019 14.6482 16.0519C14.7693 15.4553 15.0312 14.8963 15.4122 14.4214C15.7931 13.9465 16.2821 13.5696 16.8382 13.3219C17.7882 13.4519 20.4582 14.4119 22.6382 18.8519C21.767 20.1322 20.7162 21.2806 19.5182 22.2619Z" fill="#A57258"/>
</svg>
