<svg width="27" height="15" viewBox="0 0 27 15" fill="none" xmlns="http://www.w3.org/2000/svg">
<path d="M26.8568 13.5466C26.8241 13.478 26.7936 13.4211 26.7653 13.3755C26.2969 12.554 25.4017 11.5456 24.0803 10.3502L24.0524 10.3228L24.0384 10.3094L24.0243 10.2956H24.0101C23.4104 9.73891 23.0306 9.36461 22.8715 9.17297C22.5806 8.80793 22.5154 8.43842 22.6744 8.06402C22.7868 7.78115 23.2088 7.18376 23.9396 6.27105C24.324 5.78734 24.6285 5.39966 24.8533 5.10758C26.4747 3.00858 27.1777 1.66729 26.962 1.08319L26.8783 0.94669C26.822 0.864514 26.6767 0.789337 26.4427 0.720777C26.2081 0.65236 25.9083 0.641046 25.5427 0.686641L21.4942 0.713873C21.4286 0.691243 21.335 0.693352 21.213 0.720777C21.0911 0.748201 21.0302 0.761961 21.0302 0.761961L20.9597 0.796241L20.9038 0.837425C20.8569 0.864657 20.8053 0.912554 20.7491 0.981019C20.6931 1.04924 20.6462 1.12931 20.6088 1.22055C20.168 2.32475 19.6669 3.35138 19.1045 4.30039C18.7577 4.86628 18.4392 5.3567 18.1484 5.77195C17.8579 6.18705 17.6142 6.49289 17.4176 6.68893C17.2206 6.88517 17.0429 7.04238 16.8832 7.16114C16.7239 7.27994 16.6022 7.33014 16.518 7.31178C16.4335 7.29341 16.354 7.27519 16.2787 7.25698C16.1476 7.1748 16.0421 7.06304 15.9626 6.92161C15.8827 6.78017 15.829 6.60215 15.8009 6.3877C15.7729 6.1731 15.7563 5.98851 15.7516 5.83332C15.7472 5.67831 15.7493 5.45906 15.7588 5.17619C15.7685 4.89318 15.7729 4.70169 15.7729 4.60129C15.7729 4.25446 15.7798 3.87805 15.7938 3.47196C15.8079 3.06588 15.8194 2.74412 15.829 2.50709C15.8386 2.26981 15.843 2.01877 15.843 1.75412C15.843 1.48947 15.8265 1.28192 15.7938 1.13128C15.7615 0.980826 15.7119 0.834788 15.6465 0.693209C15.5808 0.551773 15.4846 0.442364 15.3584 0.364694C15.2319 0.287121 15.0746 0.22556 14.8874 0.179821C14.3907 0.0703642 13.7581 0.0111531 12.9895 0.00194775C11.2464 -0.0162711 10.1264 0.0933294 9.62968 0.330606C9.43288 0.430857 9.25479 0.567834 9.09555 0.741105C8.92681 0.941943 8.90328 1.05154 9.02509 1.06957C9.58749 1.1516 9.98562 1.34784 10.2199 1.65809L10.3044 1.82249C10.3701 1.9411 10.4357 2.1511 10.5013 2.45219C10.5668 2.75328 10.6091 3.08635 10.6277 3.4512C10.6745 4.11749 10.6745 4.68783 10.6277 5.16229C10.5808 5.63694 10.5365 6.00644 10.4942 6.2711C10.4519 6.53575 10.3887 6.7502 10.3044 6.91441C10.2199 7.07867 10.1638 7.17907 10.1356 7.2155C10.1075 7.25194 10.084 7.27491 10.0654 7.28392C9.94362 7.32937 9.81693 7.35253 9.68581 7.35253C9.5545 7.35253 9.39526 7.28857 9.20786 7.16075C9.02051 7.03293 8.82607 6.85736 8.62454 6.63375C8.42301 6.41009 8.19573 6.09754 7.9426 5.69605C7.68966 5.29457 7.42723 4.82006 7.15543 4.27254L6.93057 3.87546C6.78999 3.62002 6.59796 3.24806 6.35429 2.75994C6.11046 2.27163 5.89495 1.79928 5.7076 1.343C5.63271 1.15136 5.5202 1.00547 5.37027 0.905075L5.29991 0.86389C5.25313 0.827453 5.17804 0.788762 5.07504 0.747529C4.97189 0.706345 4.86425 0.676811 4.75169 0.658641L0.89987 0.685873C0.506263 0.685873 0.239197 0.7727 0.0985741 0.946115L0.0422953 1.02815C0.0141805 1.07384 0 1.14681 0 1.24725C0 1.34765 0.0281148 1.47087 0.0843936 1.61676C0.646689 2.90359 1.25817 4.14462 1.91885 5.34007C2.57952 6.53551 3.15363 7.49847 3.64084 8.22809C4.12815 8.95823 4.62486 9.64734 5.13097 10.2951C5.63709 10.943 5.9721 11.3583 6.13601 11.5407C6.30012 11.7235 6.42903 11.8601 6.52273 11.9513L6.87424 12.2798C7.09916 12.4989 7.42944 12.7612 7.86525 13.0669C8.30115 13.3727 8.78373 13.6738 9.31323 13.9706C9.84283 14.267 10.4589 14.5088 11.1619 14.6958C11.8648 14.883 12.5489 14.9582 13.2143 14.9219H14.831C15.1589 14.8944 15.4073 14.794 15.5761 14.6207L15.6321 14.5521C15.6697 14.4976 15.7049 14.413 15.7374 14.2991C15.7703 14.1851 15.7866 14.0594 15.7866 13.9227C15.777 13.5304 15.8077 13.1768 15.8778 12.862C15.9479 12.5473 16.0277 12.31 16.1171 12.1502C16.2063 11.9906 16.3071 11.8558 16.4192 11.7466C16.5315 11.6372 16.6116 11.5709 16.6586 11.548C16.7053 11.5251 16.7425 11.5095 16.7706 11.5001C16.9956 11.4272 17.2603 11.4978 17.5651 11.7125C17.8698 11.9269 18.1555 12.1917 18.4228 12.5064C18.6899 12.8214 19.0108 13.1748 19.3856 13.5672C19.7607 13.9596 20.0886 14.2514 20.3696 14.4433L20.6507 14.6076C20.8384 14.7172 21.0821 14.8176 21.382 14.9088C21.6814 15 21.9438 15.0228 22.169 14.9772L25.7677 14.9226C26.1236 14.9226 26.4006 14.8652 26.597 14.7513C26.7939 14.6372 26.9108 14.5116 26.9485 14.3749C26.9862 14.2381 26.9882 14.0828 26.9557 13.9092C26.9223 13.7361 26.8895 13.6151 26.8568 13.5466Z" fill="white" fill-opacity="0.25"/>
</svg>
