<svg width="24" height="21" viewBox="0 0 24 21" fill="none" xmlns="http://www.w3.org/2000/svg">
<path d="M0.423911 10.0694L5.954 12.1437L8.09448 19.0617C8.23144 19.5048 8.77056 19.6686 9.1284 19.3745L12.211 16.8491C12.5341 16.5845 12.9943 16.5713 13.332 16.8176L18.8919 20.8743C19.2747 21.1539 19.817 20.9431 19.913 20.4783L23.9859 0.789467C24.0907 0.281672 23.5942 -0.141946 23.1131 0.0450603L0.417431 8.84391C-0.142649 9.06099 -0.137769 9.8579 0.423911 10.0694ZM7.74952 11.0395L18.5574 4.34982C18.7516 4.22995 18.9515 4.49389 18.7847 4.64938L9.86504 12.9818C9.55152 13.2751 9.34928 13.6676 9.292 14.0937L8.98816 16.3566C8.94792 16.6587 8.5256 16.6887 8.44264 16.3963L7.27408 12.2698C7.14024 11.7992 7.33528 11.2965 7.74952 11.0395Z" fill="white" fill-opacity="0.5"/>
</svg>
