<svg width="23" height="23" viewBox="0 0 23 23" fill="none" xmlns="http://www.w3.org/2000/svg">
<path d="M16.6527 0H6.34703C2.84728 0 0 2.84742 0 6.34717V16.6528C0 20.1527 2.84728 23 6.34703 23H16.6527C20.1527 23 23 20.1526 23 16.6528V6.34717C23.0001 2.84742 20.1527 0 16.6527 0ZM20.9595 16.6528C20.9595 19.0275 19.0275 20.9593 16.6528 20.9593H6.34703C3.97251 20.9595 2.04067 19.0275 2.04067 16.6528V6.34717C2.04067 3.97264 3.97251 2.04067 6.34703 2.04067H16.6527C19.0274 2.04067 20.9593 3.97264 20.9593 6.34717V16.6528H20.9595Z" fill="white" fill-opacity="0.75"/>
<path d="M5.92652 1.6607e-07C2.65859 1.6607e-07 -2.03436e-07 2.65859 -2.03436e-07 5.92652C-2.03436e-07 9.19431 2.65859 11.8528 5.92652 11.8528C9.19445 11.8528 11.853 9.19431 11.853 5.92652C11.853 2.65859 9.19445 1.6607e-07 5.92652 1.6607e-07ZM5.92652 9.81196C3.78395 9.81196 2.04067 8.06895 2.04067 5.92638C2.04067 3.78368 3.78381 2.04054 5.92652 2.04054C8.06922 2.04054 9.81237 3.78368 9.81237 5.92638C9.81237 8.06895 8.06909 9.81196 5.92652 9.81196Z" transform="translate(5.57349 5.57384)" fill="white" fill-opacity="0.75"/>
<path d="M1.49649 -7.47316e-08C1.10332 -7.47316e-08 0.717092 0.159172 0.439425 0.438064C0.160397 0.715596 -3.23837e-07 1.10196 -3.23837e-07 1.49649C-3.23837e-07 1.8898 0.160533 2.27603 0.439425 2.55492C0.716956 2.83245 1.10332 2.99298 1.49649 2.99298C1.89102 2.99298 2.27603 2.83245 2.55492 2.55492C2.83381 2.27603 2.99299 1.88966 2.99299 1.49649C2.99299 1.10196 2.83381 0.715596 2.55492 0.438064C2.27739 0.159172 1.89102 -7.47316e-08 1.49649 -7.47316e-08Z" transform="translate(16.1786 3.84348)" fill="white" fill-opacity="0.75"/>
</svg>
