<svg width="286" height="132" viewBox="0 0 286 132" fill="none" xmlns="http://www.w3.org/2000/svg">
<path fill-rule="evenodd" clip-rule="evenodd" d="M109.887 90.9235L108.873 95.5761C107.52 94.4903 105.691 93.9474 103.385 93.9474C101.748 93.9052 100.126 94.2596 98.6558 94.9806C97.186 95.7015 95.9124 96.7675 94.9438 98.0875C92.7931 100.844 91.716 104.227 91.7127 108.235C91.7127 110.711 92.4127 112.669 93.7975 114.141C94.3897 114.822 95.1193 115.371 95.9385 115.75C96.7576 116.13 97.6477 116.332 98.5504 116.343C101.37 116.32 104.117 115.449 106.433 113.841L105.85 119.367C103.272 120.472 100.492 121.026 97.6881 120.995C93.9243 120.995 91.0482 119.92 89.0293 117.768C87.0104 115.617 86.0162 112.766 86.0162 109.194C86.0162 103.4 87.609 98.6524 90.7945 94.952C92.2757 93.1709 94.1398 91.7472 96.2477 90.7871C98.3556 89.8269 100.653 89.3549 102.969 89.4065C105.89 89.4065 108.185 89.9139 109.852 90.9286L109.887 90.9235ZM25.8613 71.1463C29.1811 71.1724 32.4768 70.5806 35.5802 69.401C38.484 68.3056 41.1239 66.6096 43.3275 64.4239C45.5311 62.2382 47.2487 59.6119 48.368 56.7168C49.6161 53.481 50.2375 50.0374 50.1992 46.5694C50.1925 45.0779 50.1095 43.5877 49.9507 42.1046C49.7833 40.5368 49.5804 38.9183 49.3166 37.2491C49.0528 35.5799 48.7586 33.9157 48.4594 32.2312C50.25 30.5113 51.9695 28.7811 53.6029 27.0612C55.1621 25.4182 56.6173 23.6797 57.9602 21.8556C59.178 20.2094 60.1994 18.4266 61.0037 16.5434C61.7261 14.8095 62.1067 12.9523 62.1247 11.074C62.1274 9.71111 61.9063 8.35704 61.4703 7.06579C61.0344 5.75988 60.3448 4.55293 59.4413 3.51422C58.4746 2.4156 57.2732 1.54858 55.9261 0.977383C54.3206 0.306073 52.5935 -0.0255989 50.8536 0.00323691C48.1241 -0.0561126 45.4391 0.701858 43.1434 2.17984C40.9001 3.70954 39.1402 5.84825 38.0709 8.34436C36.7942 11.3661 36.1702 14.6235 36.2397 17.9032C36.2565 20.1795 36.4379 22.4517 36.7824 24.7019C37.1121 27.0662 37.5281 29.4559 38.0353 31.8608C35.8711 33.8802 33.6341 35.9452 31.3244 38.0558C29.0266 40.1665 26.7591 42.2568 24.5374 44.2914C22.3156 46.3259 20.2156 48.259 18.283 50.0551C16.3504 51.8511 14.6308 53.4392 13.175 54.8192C12.6378 53.8169 12.2272 52.7517 11.9525 51.6482C11.6591 50.4871 11.5109 49.2942 11.5112 48.0966C11.4908 46.018 11.9491 43.9625 12.8503 42.0894C13.6655 40.3892 14.8996 38.9243 16.4366 37.8326C17.9656 36.7604 19.7579 36.1254 21.6207 35.9959C23.7333 35.8783 25.8404 36.3082 27.7381 37.244L30.9947 29.1261C28.9307 28.0727 26.6995 27.386 24.4004 27.0967C22.1812 26.812 19.9293 26.9151 17.7453 27.4011C15.5878 27.8974 13.5298 28.7551 11.6583 29.9379C9.75543 31.1391 8.06811 32.6519 6.66693 34.4129C5.18161 36.2883 4.0318 38.4065 3.26835 40.6738C2.42251 43.1842 2.00079 45.818 2.02051 48.467C2.00699 51.0055 2.39037 53.5306 3.15675 55.9507C3.86946 58.193 4.94564 60.303 6.34229 62.1964C3.97197 65.2292 2.1646 68.6626 1.00601 72.3336C-0.0176775 75.5516 -0.264518 78.9664 0.28571 82.2983H7.3365C6.99749 80.4448 6.95128 78.5495 7.19954 76.6817C7.44508 74.9617 7.95856 73.2908 8.7213 71.7298C9.54799 70.0912 10.5516 68.5481 11.7141 67.128C13.7114 68.4448 15.8996 69.4459 18.2018 70.0961C20.6762 70.8019 23.2376 71.1554 25.8106 71.1463H25.8613ZM253.617 46.2701C252.529 48.1662 251.326 49.9944 250.016 51.7446C248.64 53.5869 247.113 55.3112 245.45 56.8994C243.755 58.541 241.884 59.9906 239.871 61.2222C237.813 62.499 235.596 63.4987 233.276 64.1954C230.783 64.9406 228.194 65.315 225.591 65.3065C222.406 65.3065 219.753 64.7992 217.628 63.7844C215.614 62.8656 213.943 61.3329 212.854 59.4058C212.045 57.9228 211.541 56.2924 211.373 54.6112C210.66 55.5346 209.922 56.4208 209.162 57.2698C207.788 58.8036 206.279 60.2097 204.652 61.4708C203.152 62.6332 201.498 63.5809 199.737 64.2867C198.044 64.9488 196.244 65.2928 194.426 65.3014C192.783 65.3534 191.152 65.0051 189.673 64.2867C188.309 63.5949 187.232 62.4455 186.63 61.0396C186.049 59.6085 185.8 58.065 185.899 56.524L185.508 56.9045C183.812 58.5446 181.941 59.9942 179.929 61.2273C177.871 62.505 175.654 63.5048 173.334 64.2005C170.843 64.9453 168.255 65.3197 165.655 65.3116C162.469 65.3116 159.816 64.8042 157.691 63.7895C155.675 62.8722 154.002 61.3392 152.913 59.4109C152.04 57.7915 151.521 56.005 151.391 54.1698C150.574 55.1135 149.702 56.0268 148.783 56.9096C147.088 58.5511 145.217 60.0008 143.204 61.2324C141.146 62.5101 138.929 63.5098 136.609 64.2055C134.116 64.9508 131.527 65.3251 128.925 65.3167C125.739 65.3167 123.086 64.8093 120.966 63.7946C118.95 62.8772 117.277 61.3442 116.188 59.416C115.17 57.5138 114.627 55.3937 114.605 53.2362C113.432 54.2642 112.144 55.1513 110.765 55.8796C108.859 56.8943 106.763 57.5026 104.61 57.6659C102.457 57.8292 100.293 57.544 98.2562 56.8284C95.966 59.4229 93.2313 61.5877 90.1808 63.2212C87.6923 64.5469 84.9244 65.2617 82.1053 65.3065C80.6574 65.3348 79.2172 65.0904 77.8596 64.5861C76.659 64.1288 75.6064 63.3515 74.8161 62.3384C73.9884 61.2039 73.4646 59.8765 73.2944 58.4824C72.2238 59.7664 71.035 60.947 69.7436 62.0086C68.5464 62.9992 67.2098 63.8078 65.7769 64.4085C64.3852 64.9974 62.8901 65.3027 61.379 65.3065C60.1509 65.3211 58.9304 65.1113 57.7776 64.6875C56.6973 64.2715 55.7432 63.5828 55.008 62.6885C54.2037 61.6553 53.6796 60.432 53.4862 59.1369C53.2123 57.3732 53.2518 55.5748 53.6029 53.8248C54.0659 51.3357 54.799 48.9046 55.7891 46.5745L64.5849 24.9556H75.2777L65.574 48.9997C64.9257 50.5376 64.3817 52.1174 63.9457 53.7284C63.6877 54.5758 63.5795 55.4618 63.6262 56.3464C63.6259 56.5609 63.6709 56.773 63.7583 56.9689C63.8458 57.1648 63.9736 57.3399 64.1334 57.4829C64.3812 57.6549 64.6794 57.7388 64.9805 57.7214C65.9509 57.6735 66.8843 57.334 67.6588 56.7472C68.6978 55.9749 69.6321 55.071 70.4385 54.0582C71.4901 52.7788 72.4609 51.4351 73.3451 50.0348C74.3292 48.5059 75.3318 46.8468 76.3531 45.0575L84.4691 24.9556H95.162L85.443 48.9997C84.8126 50.506 84.2805 52.0517 83.8503 53.6269C83.5874 54.4778 83.4591 55.3646 83.4698 56.2551C83.4622 56.4781 83.5037 56.7 83.5914 56.9052C83.679 57.1103 83.8107 57.2937 83.9771 57.4423C84.2532 57.6467 84.5932 57.7456 84.9358 57.7214C86.0128 57.6494 87.0471 57.2729 87.9184 56.6356C89.3528 55.6642 90.6452 54.4979 91.7583 53.1703C91.4244 52.6932 91.1612 52.1703 90.9771 51.6177C90.7854 51.0421 90.6911 50.4385 90.6982 49.8318C90.6975 48.7191 91.0315 47.6318 91.6569 46.7115C92.2736 45.8019 93.1452 45.0948 94.1622 44.6787C95.1791 44.2626 96.2963 44.1561 97.3736 44.3725C98.7271 41.6362 99.8914 38.8103 100.858 35.9147C102.08 32.3224 103.096 28.6635 103.902 24.9556L112.85 23.9713C111.721 29.4308 110.145 34.7881 108.137 39.9889C106.532 44.1878 104.478 48.2008 102.01 51.9577C103.595 52.4398 105.285 52.4661 106.885 52.0338C108.736 51.5006 110.44 50.5493 111.866 49.2534C113.544 47.7401 114.985 45.9837 116.142 44.0427C116.48 42.8826 116.896 41.7122 117.39 40.5318C118.272 38.3766 119.365 36.3135 120.651 34.3723C121.93 32.4243 123.449 30.6448 125.171 29.0754C126.859 27.5341 128.791 26.2827 130.888 25.3716C133.089 24.4511 135.451 23.9785 137.837 23.9814C139.398 23.9703 140.95 24.2049 142.438 24.6765C143.786 25.1031 145.036 25.7929 146.115 26.706C147.156 27.607 147.959 28.7499 148.454 30.0343C148.991 31.4733 149.185 33.0176 149.022 34.5448C148.813 36.5095 148.262 38.4224 147.394 40.1969C146.4 42.5296 144.877 44.5986 142.945 46.2396C140.871 47.9029 138.411 49.0162 135.793 49.4767C132.885 50.0551 129.346 50.0973 125.176 49.6035C125.109 49.8235 125.055 50.0471 125.014 50.2732C124.895 50.823 124.819 51.381 124.785 51.9425C124.738 52.6699 124.789 53.4003 124.938 54.114C125.093 54.9013 125.42 55.6446 125.896 56.2906C126.462 57.0324 127.217 57.6075 128.083 57.9548C129.304 58.4347 130.61 58.6641 131.922 58.6296C134.577 58.5889 137.19 57.9708 139.582 56.8183C142.3 55.5171 144.778 53.7657 146.912 51.638C149.198 49.3866 151.176 46.843 152.796 44.0732C153.134 42.8995 153.553 41.7156 154.054 40.5216C154.936 38.3665 156.029 36.3034 157.315 34.3622C158.594 32.4129 160.115 30.6331 161.84 29.0653C163.538 27.5244 165.48 26.2762 167.587 25.3716C169.79 24.4507 172.154 23.9781 174.542 23.9814C176.102 23.9711 177.655 24.2056 179.142 24.6765C180.49 25.1042 181.74 25.7939 182.82 26.706C183.853 27.6118 184.648 28.7561 185.138 30.0394C185.677 31.478 185.873 33.0223 185.711 34.5499C185.498 36.5143 184.946 38.4268 184.078 40.202C183.085 42.5347 181.562 44.6037 179.629 46.2447C177.556 47.9089 175.096 49.0223 172.477 49.4817C169.569 50.0601 166.03 50.1024 161.86 49.6086C161.86 49.6086 161.8 49.847 161.698 50.2783C161.579 50.828 161.503 51.3861 161.47 51.9475C161.422 52.6749 161.474 53.4054 161.622 54.1191C161.78 54.9057 162.107 55.6485 162.581 56.2957C163.146 57.0375 163.901 57.6125 164.767 57.9598C165.991 58.4397 167.298 58.6692 168.612 58.6346C171.269 58.5972 173.887 57.9808 176.282 56.8284C179.001 55.5246 181.48 53.7716 183.616 51.6431C185.809 49.4822 187.718 47.051 189.298 44.4081L197.211 24.9556H190.718L192.914 19.5724H199.341L203.283 9.93242H213.975L210.034 19.5724H216.324L214.128 24.9556H207.904L198.2 48.9997C197.493 50.677 196.913 52.4053 196.465 54.1698C196.198 55.1194 196.105 56.1095 196.191 57.0922C196.208 57.3462 196.277 57.594 196.394 57.8201C196.511 58.0462 196.673 58.2458 196.871 58.4063C197.225 58.6201 197.635 58.7243 198.048 58.7057C199.397 58.7057 200.888 58.0512 202.532 56.798C204.451 55.243 206.175 53.4609 207.665 51.4909C209.501 49.1267 211.183 46.6474 212.702 44.0681C213.04 42.8978 213.46 41.7139 213.96 40.5165C214.841 38.3615 215.932 36.2984 217.217 34.3571C218.497 32.409 220.017 30.6294 221.741 29.0602C223.441 27.5199 225.385 26.2734 227.494 25.3716C229.694 24.4501 232.057 23.9775 234.443 23.9814C236.004 23.9703 237.556 24.2049 239.044 24.6765C240.392 25.1031 241.642 25.7929 242.721 26.706C243.76 27.6084 244.563 28.7509 245.06 30.0343C245.597 31.4733 245.791 33.0176 245.628 34.5448C245.413 36.5125 244.855 38.4272 243.979 40.202C242.984 42.5336 241.461 44.6023 239.531 46.2447C237.457 47.908 234.997 49.0213 232.378 49.4817C229.47 50.0601 225.931 50.1024 221.762 49.6086C221.695 49.8288 221.639 50.0523 221.594 50.2783C221.476 50.828 221.399 51.3861 221.366 51.9475C221.321 52.6749 221.372 53.4051 221.518 54.1191C221.678 54.906 222.006 55.6488 222.482 56.2957C223.047 57.0375 223.803 57.6125 224.668 57.9598C225.89 58.4397 227.196 58.6692 228.508 58.6346C231.162 58.5933 233.776 57.9753 236.168 56.8233C238.885 55.5222 241.364 53.7708 243.497 51.6431C245.956 49.2218 248.065 46.469 249.762 43.4643C250.34 42.3887 250.974 41.2015 251.659 39.862C252.344 38.5226 253.049 37.107 253.779 35.59C254.51 34.073 255.245 32.5052 255.981 30.8715C255.325 30.2112 254.759 29.4674 254.297 28.6594C253.864 27.8994 253.63 27.0426 253.617 26.1682C253.632 25.1963 253.857 24.2392 254.277 23.3624C254.701 22.4373 255.264 21.582 255.945 20.8256C256.602 20.0513 257.354 19.3627 258.182 18.7758C258.918 18.2461 259.728 17.8289 260.587 17.5379L265.208 20.3436L262.631 26.64C263.277 27.1846 264.065 27.7782 264.995 28.4209C265.943 29.0653 266.927 29.7756 267.952 30.5214C268.976 31.2544 269.949 32.0562 270.864 32.9212C271.727 33.7247 272.472 34.6472 273.075 35.661C273.625 36.6033 273.925 37.6703 273.948 38.761C273.938 39.2928 273.87 39.822 273.745 40.339C273.562 41.0927 273.325 41.832 273.035 42.5511L270.534 48.9236C269.834 50.5879 269.266 52.3047 268.835 54.0582C268.579 55.0134 268.485 56.0045 268.556 56.9908C268.568 57.4918 268.778 57.9677 269.139 58.315C269.384 58.5262 269.698 58.64 270.022 58.6346C271.183 58.6346 272.766 57.3814 274.749 54.8548C276.733 52.3281 279.213 48.5431 282.155 43.4643C282.69 43.514 283.209 43.6765 283.677 43.9413C284.205 44.2156 284.691 44.5661 285.117 44.9814C285.506 45.3384 285.807 45.7791 286 46.2701C284.559 48.8069 283.109 51.222 281.602 53.5001C280.216 55.6464 278.666 57.682 276.966 59.5885C275.503 61.2394 273.792 62.6517 271.893 63.7743C270.191 64.7583 268.264 65.286 266.298 65.3065C265.138 65.3164 263.985 65.1188 262.895 64.7231C261.826 64.3381 260.868 63.697 260.105 62.8559C259.269 61.8968 258.694 60.7382 258.436 59.4921C258.098 57.82 258.072 56.0999 258.36 54.4184C258.764 52.0305 259.445 49.6977 260.389 47.4675L262.956 41.1C263.189 40.5301 263.379 39.9433 263.524 39.3445C263.6 39.0514 263.638 38.7494 263.635 38.4465C263.568 37.601 263.186 36.8115 262.565 36.2344C261.706 35.3533 260.799 34.5216 259.846 33.7432C258.862 36.006 257.848 38.1674 256.828 40.2273C255.808 42.2873 254.728 44.2863 253.627 46.2599L253.617 46.2701ZM152.796 44.0783L153.156 43.4643L152.796 44.0783ZM165.036 40.9072C164.605 41.7697 164.28 42.4648 164.052 43.0077C163.823 43.5506 163.697 43.8297 163.697 43.8398C165.182 44.1161 166.702 44.1419 168.196 43.9159C169.328 43.7423 170.407 43.3195 171.356 42.6779C172.191 42.0969 172.908 41.3636 173.471 40.5165C174.034 39.6517 174.512 38.7341 174.897 37.7768C175.341 36.8994 175.674 35.9707 175.891 35.0116C175.983 34.7102 176.013 34.3931 175.978 34.0799C175.943 33.7666 175.844 33.4638 175.688 33.1902C175.389 32.7487 174.805 32.5356 173.933 32.5204C172.94 32.5362 171.969 32.824 171.128 33.3525C170.201 33.9235 169.367 34.6318 168.653 35.453C167.901 36.301 167.222 37.2107 166.624 38.1725C166.005 39.1314 165.487 40.0447 165.056 40.8869L165.036 40.9072ZM116.456 43.4441L116.106 44.0174L116.451 43.4491L116.456 43.4441ZM128.336 40.9072C127.905 41.7697 127.575 42.4648 127.322 43.0077C127.068 43.5506 126.972 43.8297 126.972 43.8398C128.457 44.1161 129.978 44.1419 131.471 43.9159C132.603 43.7415 133.682 43.3187 134.631 42.6779C135.472 42.0975 136.196 41.3643 136.767 40.5165C137.33 39.6517 137.807 38.7341 138.192 37.7768C138.635 36.8987 138.971 35.9702 139.191 35.0116C139.281 34.7099 139.309 34.3932 139.274 34.0803C139.24 33.7675 139.142 33.4648 138.988 33.1902C138.684 32.7487 138.106 32.5356 137.233 32.5204C136.233 32.5388 135.257 32.8338 134.413 33.3728C133.486 33.9451 132.65 34.6531 131.933 35.4733C131.181 36.3212 130.502 37.2309 129.904 38.1928C129.285 39.1517 128.767 40.065 128.336 40.9072ZM116.456 43.4441L116.111 44.0123H116.264H116.289L116.456 43.4441ZM228.097 43.8956C229.23 43.723 230.309 43.3001 231.257 42.6576C232.101 42.08 232.826 41.3464 233.393 40.4962C233.959 39.6326 234.439 38.7149 234.823 37.7565C235.256 36.8837 235.583 35.9622 235.797 35.0116C235.887 34.7099 235.915 34.3932 235.88 34.0803C235.846 33.7675 235.748 33.4648 235.594 33.1902C235.29 32.7487 234.712 32.5356 233.839 32.5204C232.844 32.5361 231.872 32.8238 231.029 33.3525C230.105 33.9262 229.27 34.6341 228.554 35.453C227.802 36.3009 227.124 37.2106 226.525 38.1725C225.954 39.0483 225.43 39.9544 224.957 40.8869C224.526 41.7494 224.197 42.4445 223.943 42.9874C223.689 43.5303 223.588 43.8094 223.588 43.8195C225.073 44.0958 226.594 44.1216 228.087 43.8956H228.097ZM18.7141 60.0756C20.8497 58.0765 23.0613 56.0166 25.3744 53.8552L32.4251 47.3051C34.8244 45.0829 37.2288 42.8301 39.6433 40.5825C39.7651 41.6429 39.8817 42.6424 39.9933 43.5912C40.1002 44.4481 40.1594 45.3102 40.1709 46.1737C40.1872 48.3146 39.8231 50.4414 39.0955 52.4549C38.4434 54.2882 37.4251 55.9695 36.1027 57.3967C34.8173 58.7913 33.2486 59.895 31.5019 60.6337C29.639 61.4196 27.6346 61.8151 25.6128 61.7955C24.3649 61.803 23.121 61.6548 21.9098 61.3541C20.7915 61.0655 19.7168 60.6287 18.7141 60.0553V60.0756ZM46.1514 17.0711C46.1502 16.1423 46.2317 15.2152 46.3948 14.3009C46.546 13.3917 46.8208 12.5074 47.2115 11.6727C47.5349 10.9207 48.028 10.2539 48.6521 9.7244C49.2742 9.21256 50.0583 8.93915 50.8637 8.9532C51.4654 8.92883 52.0591 9.09774 52.5579 9.4352C52.9787 9.74014 53.2956 10.167 53.4659 10.658C53.659 11.1841 53.7536 11.7414 53.7449 12.3018C53.7219 13.4166 53.4553 14.5127 52.9637 15.5135C52.3308 16.7962 51.5493 18.0002 50.6355 19.1006C49.4213 20.5803 48.1311 21.9961 46.7702 23.3421C46.5775 22.1701 46.4253 21.0539 46.3289 19.9935C46.2189 19.0164 46.1631 18.034 46.1615 17.0508L46.1514 17.0711ZM173 106.043C172.84 106.908 172.757 107.786 172.751 108.666C172.751 111.179 173.448 113.107 174.841 114.45C176.234 115.793 178.194 116.469 180.72 116.48C182.945 116.48 185.194 115.649 187.466 113.988L186.893 119.514C184.315 120.44 181.607 120.954 178.869 121.036C171.023 121.036 167.102 116.639 167.105 107.844C167.105 102.679 168.751 98.3192 172.041 94.7643C175.331 91.2093 179.477 89.4386 184.479 89.4521C187.488 89.4521 189.893 90.0948 191.692 91.3801C193.488 92.6689 194.385 94.5005 194.385 96.8952C194.419 98.4444 194.052 99.976 193.321 101.342C192.589 102.708 191.518 103.862 190.211 104.693C187.407 106.601 183.975 107.557 179.913 107.56C177.524 107.639 175.154 107.116 173.02 106.038L173 106.043ZM173.943 102.126C175.545 102.808 177.275 103.139 179.016 103.095C181.963 103.095 184.367 102.623 186.239 101.664C188.111 100.706 189.039 99.3052 189.039 97.4635C189.039 95.1245 187.431 93.9626 184.225 93.9626C179.335 93.9626 175.91 96.6838 173.948 102.126H173.943ZM192.24 76.1439L185.782 85.6266H181.826L186.66 76.1439H192.24ZM166.309 82.5824L167.324 78.3966C166.061 77.7848 164.668 77.4905 163.266 77.5392C156.58 77.5392 152.402 81.6894 150.731 89.99H146.587L145.968 93.714H150.224L145.212 122.401C144.884 123.902 144.137 125.28 143.057 126.373C141.863 127.682 140.7 128.448 139.567 128.672L140.074 132C142.748 131.717 145.282 130.659 147.363 128.956C149.352 127.3 150.662 124.97 151.046 122.411L155.855 93.7242H162.981L163.438 90.0001H156.382C157.336 84.5307 159.524 81.796 162.946 81.796C164.101 81.8755 165.236 82.1446 166.304 82.5925L166.309 82.5824ZM140.14 91.8824L136.401 109.595C136.243 110.458 136.168 111.335 136.178 112.213C136.151 115.012 136.625 117.794 137.578 120.427H132.049C131.628 119.432 131.303 118.399 131.08 117.342C130.007 118.553 128.639 119.465 127.109 119.991C125.327 120.668 123.435 121.012 121.529 121.005C118.531 121.005 116.208 120.123 114.529 118.352C112.85 116.581 111.993 114.034 111.993 110.711C111.926 105.36 113.661 100.141 116.918 95.8957C120.205 91.5831 124.432 89.4285 129.599 89.4319C134.482 89.4319 137.987 90.2555 140.115 91.9027L140.14 91.8824ZM134.149 95.0535C133.635 94.2349 131.912 93.8273 128.98 93.8307C126.048 93.8341 123.419 95.4239 121.093 98.6C118.82 101.779 117.686 105.756 117.689 110.528C117.689 114.56 119.485 116.578 123.076 116.581C124.949 116.581 126.711 115.612 128.362 113.674C130.111 111.514 131.292 108.95 131.796 106.216L134.149 95.0535Z" fill="white"/>
</svg>
