<svg width="51" height="51" viewBox="0 0 51 51" fill="none" xmlns="http://www.w3.org/2000/svg">
<path d="M23.5 2.96611e-06C18.8516 3.56256e-06 14.3077 1.37856 10.4429 3.96129C6.57806 6.54403 3.56601 10.2149 1.7877 14.5097C0.00939298 18.8044 -0.45529 23.5301 0.452428 28.089C1.36015 32.6479 3.59949 36.8351 6.88721 40.1212C10.1749 43.4073 14.3633 45.6445 18.9227 46.5499C23.482 47.4553 28.2075 46.9882 32.5013 45.2077C36.7952 43.4273 40.4645 40.4133 43.0453 36.5472C45.6261 32.6811 47.0024 28.1365 47 23.4881C47 20.4026 46.3921 17.3473 45.2109 14.4968C44.0298 11.6464 42.2986 9.05652 40.1163 6.87529C37.934 4.69407 35.3432 2.9642 32.4922 1.78451C29.6411 0.604822 26.5855 -0.0015609 23.5 2.96611e-06V2.96611e-06Z" transform="translate(2 2)" stroke="#A57258" stroke-width="2.83" stroke-miterlimit="10"/>
<path d="M9.99087e-07 -1.36239e-07V22L16.631 14.4881" transform="translate(23.3809 9.08301)" stroke="#A57258" stroke-width="3" stroke-miterlimit="10"/>
</svg>
