<svg width="227" height="53" viewBox="0 0 227 53" fill="none" xmlns="http://www.w3.org/2000/svg">
<path d="M5.5108 17.216C8.9668 17.216 11.6848 14.696 11.6848 11.006C11.6848 7.316 8.9668 4.796 5.5108 4.796C3.3868 4.796 1.9108 5.822 0.956803 7.172L2.2168 7.874C2.9008 6.866 4.1428 6.128 5.5108 6.128C7.8868 6.128 9.7228 7.784 10.0648 10.196H3.5128V11.528H10.1008C9.8848 14.102 7.9768 15.884 5.5108 15.884C4.1428 15.884 2.9008 15.164 2.2168 14.138L0.938803 14.84C1.9468 16.208 3.3868 17.216 5.5108 17.216ZM23.8309 17L18.3949 10.7L23.3989 4.994H21.5269L16.2169 11.204V4.994H14.7229V17H16.2169V12.968L17.4229 11.6L21.9769 17H23.8309ZM30.9746 17.216C33.0986 17.216 34.5386 16.208 35.5466 14.84L34.2686 14.138C33.5846 15.164 32.3426 15.884 30.9746 15.884C28.3466 15.884 26.3486 13.85 26.3486 11.006C26.3486 8.144 28.3466 6.128 30.9746 6.128C32.3426 6.128 33.5846 6.866 34.2686 7.874L35.5286 7.172C34.5746 5.822 33.0986 4.796 30.9746 4.796C27.5186 4.796 24.8006 7.316 24.8006 11.006C24.8006 14.696 27.5186 17.216 30.9746 17.216ZM48.1787 17V4.994H38.1707V17H39.6647V6.326H46.6847V17H48.1787ZM57.1771 17.216C60.7231 17.216 63.1351 14.552 63.1351 11.006C63.1351 7.46 60.7231 4.796 57.1771 4.796C53.6131 4.796 51.2191 7.46 51.2191 11.006C51.2191 14.552 53.6131 17.216 57.1771 17.216ZM57.1771 15.884C54.4771 15.884 52.7671 13.796 52.7671 11.006C52.7671 8.198 54.4771 6.128 57.1771 6.128C59.8591 6.128 61.5871 8.198 61.5871 11.006C61.5871 13.796 59.8591 15.884 57.1771 15.884ZM76.1968 17V4.994H74.7028V10.16H67.6828V4.994H66.1888V17H67.6828V11.492H74.7028V17H76.1968ZM90.0013 17L85.1593 4.994H83.3053L78.4813 17H80.1913L81.2533 14.336H87.2293L88.2913 17H90.0013ZM86.7793 13.004H81.6853L84.2413 6.542L86.7793 13.004ZM95.542 17V6.326H99.358V4.994H90.25V6.326H94.048V17H95.542ZM102.064 4.994V17H106.888C109.3 17 110.65 15.344 110.65 13.382C110.65 11.42 109.264 9.764 106.888 9.764H103.558V4.994H102.064ZM106.708 11.096C108.13 11.096 109.102 12.032 109.102 13.382C109.102 14.732 108.13 15.668 106.708 15.668H103.558V11.096H106.708ZM113.44 17V4.994H111.946V17H113.44Z" transform="translate(55 16)" fill="white"/>
<path d="M26.5 1H200.5C214.583 1 226 12.4167 226 26.5C226 40.5833 214.583 52 200.5 52H26.5C12.4167 52 1 40.5833 1 26.5C1 12.4167 12.4167 1 26.5 1Z" stroke="white" stroke-width="2"/>
</svg>
