<svg width="45" height="45" viewBox="0 0 45 45" fill="none" xmlns="http://www.w3.org/2000/svg">
<path d="M32.5814 0H12.4181C5.57077 0 0 5.57103 0 12.4184V32.5816C0 39.4292 5.57077 45 12.4181 45H32.5814C39.4292 45 45 39.429 45 32.5816V12.4184C45.0003 5.57103 39.4292 0 32.5814 0ZM41.0076 32.5816C41.0076 37.2277 37.2277 41.0074 32.5816 41.0074H12.4181C7.7723 41.0076 3.99262 37.2277 3.99262 32.5816V12.4184C3.99262 7.77256 7.7723 3.99262 12.4181 3.99262H32.5814C37.2274 3.99262 41.0074 7.77256 41.0074 12.4184V32.5816H41.0076Z" fill="#A57258"/>
<path d="M11.5954 3.2492e-07C5.20158 3.2492e-07 -3.98027e-07 5.20158 -3.98027e-07 11.5954C-3.98027e-07 17.9889 5.20158 23.1902 11.5954 23.1902C17.9891 23.1902 23.1907 17.9889 23.1907 11.5954C23.1907 5.20158 17.9891 3.2492e-07 11.5954 3.2492e-07ZM11.5954 19.1973C7.40338 19.1973 3.99262 15.7871 3.99262 11.5951C3.99262 7.40285 7.40311 3.99235 11.5954 3.99235C15.7876 3.99235 19.1981 7.40285 19.1981 11.5951C19.1981 15.7871 15.7873 19.1973 11.5954 19.1973Z" transform="translate(10.9048 10.9053)" fill="#A57258"/>
<path d="M2.92792 -1.46214e-07C2.15868 -1.46214e-07 1.40301 0.311424 0.859744 0.857082C0.31382 1.40008 -6.33594e-07 2.15601 -6.33594e-07 2.92792C-6.33594e-07 3.69743 0.314086 4.4531 0.859744 4.99876C1.40274 5.54175 2.15868 5.85584 2.92792 5.85584C3.69983 5.85584 4.4531 5.54175 4.99876 4.99876C5.54442 4.4531 5.85584 3.69716 5.85584 2.92792C5.85584 2.15601 5.54442 1.40008 4.99876 0.857082C4.45576 0.311424 3.69983 -1.46214e-07 2.92792 -1.46214e-07Z" transform="translate(31.6538 7.52002)" fill="#A57258"/>
</svg>
