<svg width="227" height="53" viewBox="0 0 227 53" fill="none" xmlns="http://www.w3.org/2000/svg">
<path d="M11.8087 17V4.994H1.80072V17H3.29472V6.326H10.3147V17H11.8087ZM16.8292 17V12.23H20.1592C22.5352 12.23 23.9212 10.574 23.9212 8.612C23.9212 6.65 22.5712 4.994 20.1592 4.994H15.3352V17H16.8292ZM19.9792 10.898H16.8292V6.326H19.9792C21.4012 6.326 22.3732 7.262 22.3732 8.612C22.3732 9.962 21.4012 10.898 19.9792 10.898ZM28.0596 17L35.0616 7.424V17H36.5556V4.994H35.0256L28.1136 14.372V4.994H26.6196V17H28.0596ZM47.9498 17V15.668H41.5778V11.528H47.8238V10.196H41.5778V6.326H47.9498V4.994H40.0838V17H47.9498ZM61.1498 17L56.4878 10.826L60.8798 4.994H59.0618L55.5158 9.8L51.9518 4.994H50.1338L54.5438 10.844L49.8638 17H51.6818L55.5158 11.888L59.3498 17H61.1498ZM73.792 17L68.95 4.994H67.096L62.272 17H63.982L65.044 14.336H71.02L72.082 17H73.792ZM70.57 13.004H65.476L68.032 6.542L70.57 13.004ZM79.3328 17V6.326H83.1488V4.994H74.0408V6.326H77.8388V17H79.3328ZM85.8544 4.994V17H90.6784C93.0904 17 94.4404 15.344 94.4404 13.382C94.4404 11.42 93.0544 9.764 90.6784 9.764H87.3484V4.994H85.8544ZM90.4984 11.096C91.9204 11.096 92.8924 12.032 92.8924 13.382C92.8924 14.732 91.9204 15.668 90.4984 15.668H87.3484V11.096H90.4984ZM98.3628 13.634L98.6508 4.994H96.9588L97.2468 13.634H98.3628ZM97.8048 17.18C98.3448 17.18 98.7948 16.712 98.7948 16.19C98.7948 15.65 98.3448 15.2 97.8048 15.2C97.2648 15.2 96.8148 15.65 96.8148 16.19C96.8148 16.712 97.2648 17.18 97.8048 17.18Z" transform="translate(63 16)" fill="white"/>
<path d="M26.5 1H200.5C214.583 1 226 12.4167 226 26.5C226 40.5833 214.583 52 200.5 52H26.5C12.4167 52 1 40.5833 1 26.5C1 12.4167 12.4167 1 26.5 1Z" stroke="white" stroke-width="2"/>
</svg>
