<svg width="12" height="7" viewBox="0 0 12 7" fill="none" xmlns="http://www.w3.org/2000/svg">
<path d="M8.48449 0.0853316C8.37078 -0.0284439 8.18152 -0.0284439 8.06383 0.0853316C7.95012 0.195263 7.95012 0.378227 8.06383 0.487902L10.1968 2.54996L0.294486 2.6358C0.130411 2.63606 0 2.76213 0 2.92075C0 3.07937 0.130411 3.20955 0.294486 3.20955L10.1968 3.1237L8.06383 5.18191C7.95012 5.29569 7.95012 5.47891 8.06383 5.58858C8.18152 5.70236 8.37104 5.70236 8.48449 5.58858L11.1224 3.03837C11.2401 2.92844 11.2401 2.74547 11.1224 2.6358L8.48449 0.0853316Z" transform="translate(11.2107 0.717392) scale(-1 1)" fill="#A57258"/>
</svg>
