<svg width="44" height="44" viewBox="0 0 44 44" fill="none" xmlns="http://www.w3.org/2000/svg">
<path d="M19.5182 22.2619C19.5182 22.2619 18.4282 23.1519 16.0382 22.2619C12.2452 20.8069 8.83321 18.5074 6.06102 15.5376C3.28882 12.5679 1.22917 9.006 0.0382192 5.12194C-0.301781 3.96194 1.67822 0.961942 3.92822 0.00194195C4.12822 -0.078058 8.50822 2.32194 9.66822 5.67194C9.06116 6.82864 8.03416 7.70893 6.79822 8.13194C7.40822 10.3819 9.38822 14.0019 14.6482 16.0519C14.7693 15.4553 15.0312 14.8963 15.4122 14.4214C15.7931 13.9465 16.2821 13.5696 16.8382 13.3219C17.7882 13.4519 20.4582 14.4119 22.6382 18.8519C21.767 20.1322 20.7162 21.2806 19.5182 22.2619Z" transform="translate(10.5518 9.82812)" fill="white"/>
<path d="M39.78 19.88C39.782 23.8143 38.6171 27.6608 36.4328 30.933C34.2485 34.2052 31.1428 36.7561 27.5085 38.2631C23.8743 39.7701 19.8747 40.1654 16.0158 39.399C12.1569 38.6327 8.61186 36.7392 5.82919 33.9579C3.04652 31.1766 1.15119 27.6326 0.382922 23.774C-0.385349 19.9155 0.00795519 15.9157 1.51309 12.2807C3.01822 8.64573 5.56757 5.53875 8.83868 3.35277C12.1098 1.16678 15.9557 4.54326e-07 19.89 -4.29153e-08C25.1626 0.00264685 30.2187 2.09767 33.9479 5.82503C37.6771 9.5524 39.7747 14.6074 39.78 19.88V19.88Z" transform="translate(2 2)" stroke="white" stroke-width="2.83" stroke-miterlimit="10"/>
</svg>
