<svg width="51" height="51" viewBox="0 0 51 51" fill="none" xmlns="http://www.w3.org/2000/svg">
<path d="M23.0607 26.3024C23.0607 26.3024 21.7729 27.354 18.9491 26.3024C14.4677 24.5833 10.4364 21.8664 7.16108 18.3577C3.88573 14.849 1.45226 10.6406 0.0451559 6.05156C-0.356553 4.68103 1.98281 1.13653 4.64118 0.00229441C4.87748 -0.0922254 10.0524 2.74337 11.423 6.70139C10.7057 8.06803 9.49234 9.10808 8.03208 9.60787C8.7528 12.2662 11.0922 16.5433 17.3068 18.9653C17.4499 18.2604 17.7594 17.5999 18.2095 17.0388C18.6595 16.4778 19.2372 16.0324 19.8943 15.7398C21.0167 15.8934 24.1713 17.0277 26.747 22.2735C25.7176 23.7862 24.4762 25.143 23.0607 26.3024Z" transform="translate(12.104 11.249)" fill="#A57258"/>
<path d="M47 23.4882C47.0023 28.1365 45.6261 32.6812 43.0453 36.5473C40.4645 40.4134 36.7951 43.4273 32.5012 45.2078C28.2074 46.9882 23.482 47.4553 18.9226 46.5499C14.3633 45.6445 10.1749 43.4072 6.88718 40.1212C3.59946 36.8351 1.36013 32.6478 0.452422 28.089C-0.455289 23.5301 0.00939904 18.8044 1.78771 14.5097C3.56602 10.2149 6.57807 6.54402 10.4429 3.96129C14.3077 1.37855 18.8516 5.36786e-07 23.5 -5.07044e-08C29.7296 0.00312725 35.7033 2.4784 40.1094 6.88227C44.5155 11.2861 46.9937 17.2586 47 23.4882V23.4882Z" transform="translate(2 2)" stroke="#A57258" stroke-width="2.83" stroke-miterlimit="10"/>
</svg>
