<svg width="20" height="22" viewBox="0 0 20 22" fill="none" xmlns="http://www.w3.org/2000/svg">
<path d="M15.9091 14C14.8701 14 13.9611 14.3871 13.2468 15.0323L7.85713 11.8064C7.92206 11.4839 7.98701 11.1613 7.98701 10.8387C7.98701 10.5161 7.92206 10.1935 7.85713 9.87096L13.0519 6.77419C13.7662 7.54839 14.8052 8.00002 15.974 8.00002C18.1818 8.00002 20 6.19356 20 4.00001C20 1.80646 18.1818 0 15.974 0C13.7662 0 11.9481 1.80646 11.9481 4.00001C11.9481 4.25807 11.9481 4.45162 12.013 4.64517L6.6883 7.87098C5.97402 7.22581 5.06494 6.83869 4.02598 6.83869C1.81819 6.83869 0 8.64515 0 10.8387C0 13.0323 1.81819 14.8387 4.02598 14.8387C5.06494 14.8387 5.97402 14.4516 6.6883 13.8065L12.0779 17.0323C12.013 17.3549 11.9481 17.6774 11.9481 18C11.9481 20.1936 13.7662 22 15.974 22C18.1818 22 20 20.1936 20 18C19.9351 15.8065 18.1169 14 15.9091 14Z" fill="white"/>
</svg>
